<?xml version="1.0" standalone="yes"?>

<svg version="1.1" viewBox="0.0 0.0 446.8582677165354 246.71391076115486" fill="none" stroke="none" stroke-linecap="square" stroke-miterlimit="10" xmlns="http://www.w3.org/2000/svg" xmlns:xlink="http://www.w3.org/1999/xlink"><clipPath id="p.0"><path d="m0 0l446.85828 0l0 246.71391l-446.85828 0l0 -246.71391z" clip-rule="nonzero"></path></clipPath><g clip-path="url(#p.0)"><path fill="#000000" fill-opacity="0.0" d="m0 0l446.85828 0l0 246.71391l-446.85828 0z" fill-rule="nonzero"></path><path fill="#000000" fill-opacity="0.0" d="m0 0l458.55118 0l0 255.74803l-458.55118 0z" fill-rule="nonzero"></path><path fill="#000000" d="m12.53125 26.43901l20.28125 0l0 8.5625l-5.0 0l0 30.25l5.0 0l0 8.5625l-20.28125 0l0 -8.5625l4.90625 0l0 -30.25l-4.90625 0l0 -8.5625z" fill-rule="nonzero"></path><path fill="#000000" d="m58.75 68.43901l4.5625 0l0 -14.78125q0 -3.71875 -1.890625 -5.640625q-1.890625 -1.921875 -5.421875 -1.921875q-2.03125 0 -4.09375 0.96875q-2.0625 0.96875 -3.90625 2.40625l0 18.96875l4.5625 0l0 5.375l-15.125 0l0 -5.375l4.5 0l0 -21.625l-4.5 0l0 -5.375l10.3125 0l0 3.8125l0.0625 0q1.03125 -0.90625 2.203125 -1.71875q1.171875 -0.8125 2.453125 -1.40625q1.28125 -0.59375 2.671875 -0.9375q1.390625 -0.34375 2.921875 -0.34375q2.59375 0 4.6875 0.71875q2.09375 0.71875 3.5625 2.1875q1.46875 1.46875 2.265625 3.765625q0.796875 2.296875 0.796875 5.421875l0 15.5l4.5 0l0 5.375l-15.125 0l0 -5.375zm40.0625 -18.3125q0 -1.3125 -0.609375 -2.234375q-0.609375 -0.921875 -1.578125 -1.5q-0.96875 -0.578125 -2.15625 -0.84375q-1.1875 -0.265625 -2.3125 -0.265625q-1.25 0 -2.296875 0.28125q-1.046875 0.28125 -1.796875 0.8125q-0.75 0.53125 -1.171875 1.296875q-0.421875 0.765625 -0.421875 1.703125q0 1.625 0.984375 2.578125q0.984375 0.953125 3.296875 1.765625l6.21875 2.1875q4.0 1.34375 5.84375 3.65625q1.84375 2.3125 1.84375 5.53125q0 2.15625 -0.859375 3.953125q-0.859375 1.796875 -2.4375 3.0625q-1.578125 1.265625 -3.796875 1.96875q-2.21875 0.703125 -4.9375 0.703125q-3.78125 0 -6.15625 -1.21875q-2.375 -1.21875 -3.65625 -3.21875l-3.25 0l0 -5.375l6.46875 0q0 1.34375 0.578125 2.296875q0.578125 0.953125 1.53125 1.546875q0.953125 0.59375 2.15625 0.875q1.203125 0.28125 2.453125 0.28125q1.21875 0 2.34375 -0.296875q1.125 -0.296875 1.984375 -0.875q0.859375 -0.578125 1.359375 -1.390625q0.5 -0.8125 0.5 -1.84375q0 -1.5625 -1.015625 -2.65625q-1.015625 -1.09375 -3.453125 -1.96875l-6.1875 -2.3125q-3.78125 -1.34375 -5.609375 -3.421875q-1.828125 -2.078125 -1.828125 -5.203125q0 -2.0625 0.765625 -3.8125q0.765625 -1.75 2.21875 -3.015625q1.453125 -1.265625 3.546875 -1.984375q2.09375 -0.71875 4.78125 -0.71875q3.46875 0 5.8125 0.96875q2.34375 0.96875 4.21875 3.3125l3.03125 0l0 5.375l-6.40625 0zm21.71875 -8.6875l7.59375 0l0 4.71875l-7.65625 0l-0.09375 18.6875q0 1.90625 0.4375 3.09375q0.4375 1.1875 1.40625 1.640625q0.96875 0.453125 2.1875 0.453125q1.3125 0 2.3125 -0.234375q1.0 -0.234375 2.1875 -0.796875l1.34375 3.90625q-1.5 0.78125 -3.15625 1.234375q-1.65625 0.453125 -3.90625 0.453125q-2.125 0 -3.703125 -0.515625q-1.578125 -0.515625 -2.65625 -1.734375q-1.078125 -1.21875 -1.609375 -3.265625q-0.53125 -2.046875 -0.53125 -5.109375l0.09375 -17.8125l-5.15625 0l0 -4.71875l5.21875 0l0 -7.75l5.6875 -2.6875l0 10.4375zm14.1875 0l10.5625 0l0 27.0l4.875 0l0 5.375l-15.375 0l0 -5.375l4.625 0l0 -21.625l-4.6875 0l0 -5.375zm3.59375 -11.46875q0 -0.8125 0.328125 -1.546875q0.328125 -0.734375 0.875 -1.28125q0.546875 -0.546875 1.296875 -0.875q0.75 -0.328125 1.59375 -0.328125q0.8125 0 1.546875 0.328125q0.734375 0.328125 1.28125 0.875q0.546875 0.546875 0.875 1.28125q0.328125 0.734375 0.328125 1.546875q0 0.84375 -0.328125 1.59375q-0.328125 0.75 -0.875 1.328125q-0.546875 0.578125 -1.28125 0.90625q-0.734375 0.328125 -1.546875 0.328125q-0.84375 0 -1.59375 -0.328125q-0.75 -0.328125 -1.296875 -0.90625q-0.546875 -0.578125 -0.875 -1.328125q-0.328125 -0.75 -0.328125 -1.59375zm26.5625 11.46875l7.59375 0l0 4.71875l-7.65625 0l-0.09375 18.6875q0 1.90625 0.4375 3.09375q0.4375 1.1875 1.40625 1.640625q0.96875 0.453125 2.1875 0.453125q1.3125 0 2.3125 -0.234375q1.0 -0.234375 2.1875 -0.796875l1.34375 3.90625q-1.5 0.78125 -3.15625 1.234375q-1.65625 0.453125 -3.90625 0.453125q-2.125 0 -3.703125 -0.515625q-1.578125 -0.515625 -2.65625 -1.734375q-1.078125 -1.21875 -1.609375 -3.265625q-0.53125 -2.046875 -0.53125 -5.109375l0.09375 -17.8125l-5.15625 0l0 -4.71875l5.21875 0l0 -7.75l5.6875 -2.6875l0 10.4375zm33.9375 0l10.4375 0l0 27.0l3.59375 0l0 5.375l-9.4375 0l0 -3.0q-2.1875 1.6875 -4.765625 2.625q-2.578125 0.9375 -5.515625 0.9375q-2.4375 0 -4.421875 -0.703125q-1.984375 -0.703125 -3.375 -2.1875q-1.390625 -1.484375 -2.140625 -3.765625q-0.75 -2.28125 -0.75 -5.4375l0 -15.46875l-4.375 0l0 -5.375l10.4375 0l0 20.15625q0 3.71875 1.71875 5.625q1.71875 1.90625 4.9375 1.90625q1.90625 0 4.015625 -0.6875q2.109375 -0.6875 3.984375 -1.90625l0 -19.71875l-4.34375 0l0 -5.375zm32.0625 0l7.59375 0l0 4.71875l-7.65625 0l-0.09375 18.6875q0 1.90625 0.4375 3.09375q0.4375 1.1875 1.40625 1.640625q0.96875 0.453125 2.1875 0.453125q1.3125 0 2.3125 -0.234375q1.0 -0.234375 2.1875 -0.796875l1.34375 3.90625q-1.5 0.78125 -3.15625 1.234375q-1.65625 0.453125 -3.90625 0.453125q-2.125 0 -3.703125 -0.515625q-1.578125 -0.515625 -2.65625 -1.734375q-1.078125 -1.21875 -1.609375 -3.265625q-0.53125 -2.046875 -0.53125 -5.109375l0.09375 -17.8125l-5.15625 0l0 -4.71875l5.21875 0l0 -7.75l5.6875 -2.6875l0 10.4375zm19.9375 16.9375q0 1.375 0.203125 2.515625q0.203125 1.140625 0.578125 2.171875q1.15625 3.125 3.703125 4.703125q2.546875 1.578125 5.765625 1.578125q2.53125 0 4.921875 -0.703125q2.390625 -0.703125 5.015625 -2.203125l2.34375 3.96875q-3.1875 2.1875 -6.40625 3.25q-3.21875 1.0625 -6.6875 1.0625q-3.28125 0 -6.078125 -1.09375q-2.796875 -1.09375 -4.8125 -3.25q-2.015625 -2.15625 -3.15625 -5.375q-1.140625 -3.21875 -1.140625 -7.5q0 -3.46875 0.96875 -6.546875q0.96875 -3.078125 2.890625 -5.375q1.921875 -2.296875 4.765625 -3.640625q2.84375 -1.34375 6.625 -1.34375q3.65625 0 6.109375 1.109375q2.453125 1.109375 4.0 2.9375q1.546875 1.828125 2.34375 4.171875q0.796875 2.34375 1.109375 4.78125q0.15625 1.1875 0.203125 2.40625q0.046875 1.21875 0.046875 2.375l-23.3125 0zm9.09375 -12.90625q-2.03125 0 -3.546875 0.578125q-1.515625 0.578125 -2.578125 1.65625q-1.0625 1.078125 -1.703125 2.640625q-0.640625 1.5625 -0.953125 3.5l16.78125 0q-0.125 -1.8125 -0.578125 -3.34375q-0.453125 -1.53125 -1.390625 -2.65625q-0.9375 -1.125 -2.40625 -1.75q-1.46875 -0.625 -3.625 -0.625zm19.0 28.34375q0 0 0 0zm27.8125 -32.375l7.5 0l0 4.71875l-7.5 0l0 22.28125l5.0625 0l0 5.375l-15.75 0l0 -5.375l4.875 0l0 -22.28125l-5.34375 0l0 -4.71875l5.34375 0l0 -5.0625q0.0625 -2.8125 0.8125 -4.90625q0.75 -2.09375 2.125 -3.5q1.375 -1.40625 3.3125 -2.09375q1.9375 -0.6875 4.3125 -0.6875q1.65625 0 2.96875 0.15625q1.3125 0.15625 2.34375 0.421875q1.03125 0.265625 1.828125 0.578125q0.796875 0.3125 1.421875 0.625l-1.78125 4.15625q-1.0 -0.53125 -2.609375 -0.90625q-1.609375 -0.375 -3.359375 -0.375q-2.59375 0 -4.078125 1.609375q-1.484375 1.609375 -1.484375 4.734375l0 5.25zm12.15625 16.1875q0.03125 -3.84375 1.234375 -7.0q1.203125 -3.15625 3.359375 -5.421875q2.15625 -2.265625 5.125 -3.484375q2.96875 -1.21875 6.53125 -1.21875q3.59375 0 6.578125 1.21875q2.984375 1.21875 5.109375 3.453125q2.125 2.234375 3.3125 5.390625q1.1875 3.15625 1.1875 7.0q0 3.78125 -1.1875 6.953125q-1.1875 3.171875 -3.3125 5.453125q-2.125 2.28125 -5.109375 3.546875q-2.984375 1.265625 -6.578125 1.265625q-3.65625 0 -6.625 -1.25q-2.96875 -1.25 -5.09375 -3.515625q-2.125 -2.265625 -3.3125 -5.421875q-1.1875 -3.15625 -1.21875 -6.96875zm6.15625 0q0 2.78125 0.796875 5.03125q0.796875 2.25 2.1875 3.828125q1.390625 1.578125 3.21875 2.4375q1.828125 0.859375 3.890625 0.859375q2.15625 0 4.015625 -0.84375q1.859375 -0.84375 3.234375 -2.421875q1.375 -1.578125 2.15625 -3.828125q0.78125 -2.25 0.78125 -5.0625q0 -2.9375 -0.78125 -5.21875q-0.78125 -2.28125 -2.140625 -3.8125q-1.359375 -1.53125 -3.234375 -2.3125q-1.875 -0.78125 -4.03125 -0.78125q-2.0625 0 -3.890625 0.78125q-1.828125 0.78125 -3.21875 2.3125q-1.390625 1.53125 -2.1875 3.8125q-0.796875 2.28125 -0.796875 5.21875zm55.84375 -9.34375l-5.9375 0l0 -2.0q-1.03125 0 -2.109375 0.390625q-1.078125 0.390625 -2.015625 1.1875q-0.9375 0.796875 -1.640625 2.03125q-0.703125 1.234375 -1.015625 2.921875l0 15.625l5.5 0l0 5.375l-16.0625 0l0 -5.375l4.46875 0l0.03125 -21.625l-4.5 0l0 -5.375l10.34375 0l0 4.46875q0.5625 -1.0 1.265625 -1.859375q0.703125 -0.859375 1.5625 -1.5q0.859375 -0.640625 1.90625 -1.0q1.046875 -0.359375 2.265625 -0.359375q1.625 0 3.0625 0q1.4375 0 2.875 0.0625l0 7.03125zm3.59375 25.53125q0 0 0 0z" fill-rule="nonzero"></path><path fill="#000000" d="m12.53125 103.43901l25.0625 0q3.65625 0 6.53125 1.09375q2.875 1.09375 4.84375 2.921875q1.96875 1.828125 3.015625 4.25q1.046875 2.421875 1.046875 5.046875q0 2.40625 -0.515625 4.21875q-0.515625 1.8125 -1.5 3.21875q-0.984375 1.40625 -2.421875 2.484375q-1.4375 1.078125 -3.28125 1.953125q1.59375 0.8125 2.8125 2.484375q1.21875 1.671875 1.84375 4.328125l1.59375 6.15625l3.90625 0l0.0625 9.21875l-13.75 0l-1.875 -11.25q-0.28125 -2.0 -0.859375 -3.453125q-0.578125 -1.453125 -1.546875 -2.375q-0.96875 -0.921875 -2.359375 -1.359375q-1.390625 -0.4375 -3.296875 -0.4375l-4.03125 0l0 10.3125l4.34375 0l0 8.5625l-19.625 0l0 -8.5625l4.90625 0l0 -30.21875l-4.90625 0l0 -8.59375zm15.28125 8.59375l0 11.46875l6.21875 0q1.78125 0 3.203125 -0.328125q1.421875 -0.328125 2.4375 -1.03125q1.015625 -0.703125 1.5625 -1.765625q0.546875 -1.0625 0.546875 -2.53125q0 -2.75 -1.96875 -4.28125q-1.96875 -1.53125 -5.78125 -1.53125l-6.21875 0z" fill-rule="nonzero"></path><path fill="#000000" d="m65.4375 135.37651q0 1.375 0.203125 2.515625q0.203125 1.140625 0.578125 2.171875q1.15625 3.125 3.703125 4.703125q2.546875 1.578125 5.765625 1.578125q2.53125 0 4.921875 -0.703125q2.390625 -0.703125 5.015625 -2.203125l2.34375 3.96875q-3.1875 2.1875 -6.40625 3.25q-3.21875 1.0625 -6.6875 1.0625q-3.28125 0 -6.078125 -1.09375q-2.796875 -1.09375 -4.8125 -3.25q-2.015625 -2.15625 -3.15625 -5.375q-1.140625 -3.21875 -1.140625 -7.5q0 -3.46875 0.96875 -6.546875q0.96875 -3.078125 2.890625 -5.375q1.921875 -2.296875 4.765625 -3.640625q2.84375 -1.34375 6.625 -1.34375q3.65625 0 6.109375 1.109375q2.453125 1.109375 4.0 2.9375q1.546875 1.828125 2.34375 4.171875q0.796875 2.34375 1.109375 4.78125q0.15625 1.1875 0.203125 2.40625q0.046875 1.21875 0.046875 2.375l-23.3125 0zm9.09375 -12.90625q-2.03125 0 -3.546875 0.578125q-1.515625 0.578125 -2.578125 1.65625q-1.0625 1.078125 -1.703125 2.640625q-0.640625 1.5625 -0.953125 3.5l16.78125 0q-0.125 -1.8125 -0.578125 -3.34375q-0.453125 -1.53125 -1.390625 -2.65625q-0.9375 -1.125 -2.40625 -1.75q-1.46875 -0.625 -3.625 -0.625zm20.84375 -4.03125l10.3125 0l0 2.6875q2.0625 -1.59375 4.5 -2.53125q2.4375 -0.9375 5.03125 -0.9375q3.1875 0 5.84375 1.1875q2.65625 1.1875 4.578125 3.34375q1.921875 2.15625 2.984375 5.171875q1.0625 3.015625 1.0625 6.671875q0 3.90625 -1.1875 7.125q-1.1875 3.21875 -3.296875 5.515625q-2.109375 2.296875 -5.015625 3.578125q-2.90625 1.28125 -6.375 1.28125q-2.46875 0 -4.390625 -0.515625q-1.921875 -0.515625 -3.671875 -1.328125l0 10.46875l5.0625 0l0 5.375l-15.375 0l0 -5.375l4.4375 0l0 -36.34375l-4.5 0l0 -5.375zm18.3125 4.34375q-2.25 0 -4.328125 0.90625q-2.078125 0.90625 -3.609375 2.5l0 17.53125q1.03125 1.0625 2.953125 1.90625q1.921875 0.84375 4.796875 0.84375q2.0 0 3.84375 -0.78125q1.84375 -0.78125 3.25 -2.328125q1.40625 -1.546875 2.25 -3.828125q0.84375 -2.28125 0.84375 -5.28125q0 -2.75 -0.796875 -4.875q-0.796875 -2.125 -2.15625 -3.59375q-1.359375 -1.46875 -3.171875 -2.234375q-1.8125 -0.765625 -3.875 -0.765625zm45.28125 2.5l-5.9375 0l0 -2.0q-1.03125 0 -2.109375 0.390625q-1.078125 0.390625 -2.015625 1.1875q-0.9375 0.796875 -1.640625 2.03125q-0.703125 1.234375 -1.015625 2.921875l0 15.625l5.5 0l0 5.375l-16.0625 0l0 -5.375l4.46875 0l0.03125 -21.625l-4.5 0l0 -5.375l10.34375 0l0 4.46875q0.5625 -1.0 1.265625 -1.859375q0.703125 -0.859375 1.5625 -1.5q0.859375 -0.640625 1.90625 -1.0q1.046875 -0.359375 2.265625 -0.359375q1.625 0 3.0625 0q1.4375 0 2.875 0.0625l0 7.03125zm6.28125 9.34375q0.03125 -3.84375 1.234375 -7.0q1.203125 -3.15625 3.359375 -5.421875q2.15625 -2.265625 5.125 -3.484375q2.96875 -1.21875 6.53125 -1.21875q3.59375 0 6.578125 1.21875q2.984375 1.21875 5.109375 3.453125q2.125 2.234375 3.3125 5.390625q1.1875 3.15625 1.1875 7.0q0 3.78125 -1.1875 6.953125q-1.1875 3.171875 -3.3125 5.453125q-2.125 2.28125 -5.109375 3.546875q-2.984375 1.265625 -6.578125 1.265625q-3.65625 0 -6.625 -1.25q-2.96875 -1.25 -5.09375 -3.515625q-2.125 -2.265625 -3.3125 -5.421875q-1.1875 -3.15625 -1.21875 -6.96875zm6.15625 0q0 2.78125 0.796875 5.03125q0.796875 2.25 2.1875 3.828125q1.390625 1.578125 3.21875 2.4375q1.828125 0.859375 3.890625 0.859375q2.15625 0 4.015625 -0.84375q1.859375 -0.84375 3.234375 -2.421875q1.375 -1.578125 2.15625 -3.828125q0.78125 -2.25 0.78125 -5.0625q0 -2.9375 -0.78125 -5.21875q-0.78125 -2.28125 -2.140625 -3.8125q-1.359375 -1.53125 -3.234375 -2.3125q-1.875 -0.78125 -4.03125 -0.78125q-2.0625 0 -3.890625 0.78125q-1.828125 0.78125 -3.21875 2.3125q-1.390625 1.53125 -2.1875 3.8125q-0.796875 2.28125 -0.796875 5.21875zm51.65625 -32.4375l10.21875 0l0 43.25l4.75 0l0 5.375l-10.5625 0l0 -2.65625q-1.5625 1.59375 -3.625 2.484375q-2.0625 0.890625 -4.6875 0.890625q-3.28125 0 -6.109375 -1.140625q-2.828125 -1.140625 -4.90625 -3.34375q-2.078125 -2.203125 -3.25 -5.40625q-1.171875 -3.203125 -1.171875 -7.328125q0 -3.75 1.125 -6.828125q1.125 -3.078125 3.1875 -5.25q2.0625 -2.171875 4.96875 -3.375q2.90625 -1.203125 6.46875 -1.203125q2.34375 0 4.28125 0.515625q1.9375 0.515625 3.71875 1.796875l0 -12.40625l-4.40625 0l0 -5.375zm-3.15625 44.28125q2.59375 0 4.34375 -0.765625q1.75 -0.765625 3.21875 -2.296875l0 -18.125q-1.5625 -1.3125 -3.59375 -1.90625q-2.03125 -0.59375 -4.15625 -0.59375q-2.0625 0 -3.875 0.765625q-1.8125 0.765625 -3.171875 2.234375q-1.359375 1.46875 -2.140625 3.59375q-0.78125 2.125 -0.78125 4.875q0 3.0 0.75 5.28125q0.75 2.28125 2.09375 3.828125q1.34375 1.546875 3.21875 2.328125q1.875 0.78125 4.09375 0.78125zm43.1875 -28.03125l10.4375 0l0 27.0l3.59375 0l0 5.375l-9.4375 0l0 -3.0q-2.1875 1.6875 -4.765625 2.625q-2.578125 0.9375 -5.515625 0.9375q-2.4375 0 -4.421875 -0.703125q-1.984375 -0.703125 -3.375 -2.1875q-1.390625 -1.484375 -2.140625 -3.765625q-0.75 -2.28125 -0.75 -5.4375l0 -15.46875l-4.375 0l0 -5.375l10.4375 0l0 20.15625q0 3.71875 1.71875 5.625q1.71875 1.90625 4.9375 1.90625q1.90625 0 4.015625 -0.6875q2.109375 -0.6875 3.984375 -1.90625l0 -19.71875l-4.34375 0l0 -5.375zm46.0625 8.625q-1.3125 -2.34375 -3.328125 -3.4375q-2.015625 -1.09375 -4.671875 -1.09375q-2.03125 0 -3.8125 0.84375q-1.78125 0.84375 -3.109375 2.40625q-1.328125 1.5625 -2.09375 3.796875q-0.765625 2.234375 -0.765625 4.984375q0 2.71875 0.765625 4.90625q0.765625 2.1875 2.109375 3.734375q1.34375 1.546875 3.109375 2.375q1.765625 0.828125 3.796875 0.828125q3.0 0 5.21875 -1.453125q2.21875 -1.453125 3.53125 -4.265625l4.8125 2.375q-0.9375 2.0 -2.3125 3.59375q-1.375 1.59375 -3.109375 2.71875q-1.734375 1.125 -3.8125 1.734375q-2.078125 0.609375 -4.390625 0.609375q-3.375 0 -6.234375 -1.265625q-2.859375 -1.265625 -4.9375 -3.546875q-2.078125 -2.28125 -3.234375 -5.4375q-1.15625 -3.15625 -1.15625 -6.90625q0 -3.75 1.21875 -6.90625q1.21875 -3.15625 3.34375 -5.421875q2.125 -2.265625 4.96875 -3.546875q2.84375 -1.28125 6.09375 -1.28125q3.0625 0 5.796875 1.0625q2.734375 1.0625 4.796875 3.21875l3.28125 0l0 5.375l-5.875 0zm11.3125 -8.625l10.5625 0l0 27.0l4.875 0l0 5.375l-15.375 0l0 -5.375l4.625 0l0 -21.625l-4.6875 0l0 -5.375zm3.59375 -11.46875q0 -0.8125 0.328125 -1.546875q0.328125 -0.734375 0.875 -1.28125q0.546875 -0.546875 1.296875 -0.875q0.75 -0.328125 1.59375 -0.328125q0.8125 0 1.546875 0.328125q0.734375 0.328125 1.28125 0.875q0.546875 0.546875 0.875 1.28125q0.328125 0.734375 0.328125 1.546875q0 0.84375 -0.328125 1.59375q-0.328125 0.75 -0.875 1.328125q-0.546875 0.578125 -1.28125 0.90625q-0.734375 0.328125 -1.546875 0.328125q-0.84375 0 -1.59375 -0.328125q-0.75 -0.328125 -1.296875 -0.90625q-0.546875 -0.578125 -0.875 -1.328125q-0.328125 -0.75 -0.328125 -1.59375zm15.84375 -4.78125l10.5 0l0 18.9375q2.0625 -1.59375 4.5 -2.53125q2.4375 -0.9375 5.03125 -0.9375q3.1875 0 5.84375 1.1875q2.65625 1.1875 4.578125 3.34375q1.921875 2.15625 2.984375 5.171875q1.0625 3.015625 1.0625 6.671875q0 3.90625 -1.1875 7.078125q-1.1875 3.171875 -3.296875 5.453125q-2.109375 2.28125 -5.015625 3.515625q-2.90625 1.234375 -6.375 1.234375q-2.40625 0 -4.515625 -0.703125q-2.109375 -0.703125 -3.609375 -1.828125l0 2.03125l-5.8125 0l0 -43.25l-4.6875 0l0 -5.375zm18.5 20.59375q-2.28125 0 -4.375 0.9375q-2.09375 0.9375 -3.625 2.53125l0 17.40625q1.0 1.03125 2.9375 1.828125q1.9375 0.796875 4.875 0.796875q2.0 0 3.84375 -0.75q1.84375 -0.75 3.25 -2.265625q1.40625 -1.515625 2.25 -3.765625q0.84375 -2.25 0.84375 -5.25q0 -2.75 -0.796875 -4.875q-0.796875 -2.125 -2.15625 -3.59375q-1.359375 -1.46875 -3.171875 -2.234375q-1.8125 -0.765625 -3.875 -0.765625zm21.75 -20.59375l10.5 0l0 43.25l4.875 0l0 5.375l-15.375 0l0 -5.375l4.6875 0l0 -37.875l-4.6875 0l0 -5.375zm26.5625 33.1875q0 1.375 0.203125 2.515625q0.203125 1.140625 0.578125 2.171875q1.15625 3.125 3.703125 4.703125q2.546875 1.578125 5.765625 1.578125q2.53125 0 4.921875 -0.703125q2.390625 -0.703125 5.015625 -2.203125l2.34375 3.96875q-3.1875 2.1875 -6.40625 3.25q-3.21875 1.0625 -6.6875 1.0625q-3.28125 0 -6.078125 -1.09375q-2.796875 -1.09375 -4.8125 -3.25q-2.015625 -2.15625 -3.15625 -5.375q-1.140625 -3.21875 -1.140625 -7.5q0 -3.46875 0.96875 -6.546875q0.96875 -3.078125 2.890625 -5.375q1.921875 -2.296875 4.765625 -3.640625q2.84375 -1.34375 6.625 -1.34375q3.65625 0 6.109375 1.109375q2.453125 1.109375 4.0 2.9375q1.546875 1.828125 2.34375 4.171875q0.796875 2.34375 1.109375 4.78125q0.15625 1.1875 0.203125 2.40625q0.046875 1.21875 0.046875 2.375l-23.3125 0zm9.09375 -12.90625q-2.03125 0 -3.546875 0.578125q-1.515625 0.578125 -2.578125 1.65625q-1.0625 1.078125 -1.703125 2.640625q-0.640625 1.5625 -0.953125 3.5l16.78125 0q-0.125 -1.8125 -0.578125 -3.34375q-0.453125 -1.53125 -1.390625 -2.65625q-0.9375 -1.125 -2.40625 -1.75q-1.46875 -0.625 -3.625 -0.625zm19.0 28.34375q0 0 0 0z" fill-rule="nonzero"></path><path fill="#000000" d="m12.53125 180.43901l25.0625 0q3.65625 0 6.53125 1.09375q2.875 1.09375 4.84375 2.921875q1.96875 1.828125 3.015625 4.25q1.046875 2.421875 1.046875 5.046875q0 2.40625 -0.515625 4.21875q-0.515625 1.8125 -1.5 3.21875q-0.984375 1.40625 -2.421875 2.484375q-1.4375 1.078125 -3.28125 1.953125q1.59375 0.8125 2.8125 2.484375q1.21875 1.671875 1.84375 4.328125l1.59375 6.15625l3.90625 0l0.0625 9.21875l-13.75 0l-1.875 -11.25q-0.28125 -2.0 -0.859375 -3.453125q-0.578125 -1.453125 -1.546875 -2.375q-0.96875 -0.921875 -2.359375 -1.359375q-1.390625 -0.4375 -3.296875 -0.4375l-4.03125 0l0 10.3125l4.34375 0l0 8.5625l-19.625 0l0 -8.5625l4.90625 0l0 -30.21875l-4.90625 0l0 -8.59375zm15.28125 8.59375l0 11.46875l6.21875 0q1.78125 0 3.203125 -0.328125q1.421875 -0.328125 2.4375 -1.03125q1.015625 -0.703125 1.5625 -1.765625q0.546875 -1.0625 0.546875 -2.53125q0 -2.75 -1.96875 -4.28125q-1.96875 -1.53125 -5.78125 -1.53125l-6.21875 0z" fill-rule="nonzero"></path><path fill="#000000" d="m65.4375 212.37651q0 1.375 0.203125 2.515625q0.203125 1.140625 0.578125 2.171875q1.15625 3.125 3.703125 4.703125q2.546875 1.578125 5.765625 1.578125q2.53125 0 4.921875 -0.703125q2.390625 -0.703125 5.015625 -2.203125l2.34375 3.96875q-3.1875 2.1875 -6.40625 3.25q-3.21875 1.0625 -6.6875 1.0625q-3.28125 0 -6.078125 -1.09375q-2.796875 -1.09375 -4.8125 -3.25q-2.015625 -2.15625 -3.15625 -5.375q-1.140625 -3.21875 -1.140625 -7.5q0 -3.46875 0.96875 -6.546875q0.96875 -3.078125 2.890625 -5.375q1.921875 -2.296875 4.765625 -3.640625q2.84375 -1.34375 6.625 -1.34375q3.65625 0 6.109375 1.109375q2.453125 1.109375 4.0 2.9375q1.546875 1.828125 2.34375 4.171875q0.796875 2.34375 1.109375 4.78125q0.15625 1.1875 0.203125 2.40625q0.046875 1.21875 0.046875 2.375l-23.3125 0zm9.09375 -12.90625q-2.03125 0 -3.546875 0.578125q-1.515625 0.578125 -2.578125 1.65625q-1.0625 1.078125 -1.703125 2.640625q-0.640625 1.5625 -0.953125 3.5l16.78125 0q-0.125 -1.8125 -0.578125 -3.34375q-0.453125 -1.53125 -1.390625 -2.65625q-0.9375 -1.125 -2.40625 -1.75q-1.46875 -0.625 -3.625 -0.625zm40.8125 4.65625q0 -1.3125 -0.609375 -2.234375q-0.609375 -0.921875 -1.578125 -1.5q-0.96875 -0.578125 -2.15625 -0.84375q-1.1875 -0.265625 -2.3125 -0.265625q-1.25 0 -2.296875 0.28125q-1.046875 0.28125 -1.796875 0.8125q-0.75 0.53125 -1.171875 1.296875q-0.421875 0.765625 -0.421875 1.703125q0 1.625 0.984375 2.578125q0.984375 0.953125 3.296875 1.765625l6.21875 2.1875q4.0 1.34375 5.84375 3.65625q1.84375 2.3125 1.84375 5.53125q0 2.15625 -0.859375 3.953125q-0.859375 1.796875 -2.4375 3.0625q-1.578125 1.265625 -3.796875 1.96875q-2.21875 0.703125 -4.9375 0.703125q-3.78125 0 -6.15625 -1.21875q-2.375 -1.21875 -3.65625 -3.21875l-3.25 0l0 -5.375l6.46875 0q0 1.34375 0.578125 2.296875q0.578125 0.953125 1.53125 1.546875q0.953125 0.59375 2.15625 0.875q1.203125 0.28125 2.453125 0.28125q1.21875 0 2.34375 -0.296875q1.125 -0.296875 1.984375 -0.875q0.859375 -0.578125 1.359375 -1.390625q0.5 -0.8125 0.5 -1.84375q0 -1.5625 -1.015625 -2.65625q-1.015625 -1.09375 -3.453125 -1.96875l-6.1875 -2.3125q-3.78125 -1.34375 -5.609375 -3.421875q-1.828125 -2.078125 -1.828125 -5.203125q0 -2.0625 0.765625 -3.8125q0.765625 -1.75 2.21875 -3.015625q1.453125 -1.265625 3.546875 -1.984375q2.09375 -0.71875 4.78125 -0.71875q3.46875 0 5.8125 0.96875q2.34375 0.96875 4.21875 3.3125l3.03125 0l0 5.375l-6.40625 0zm17.84375 8.25q0 1.375 0.203125 2.515625q0.203125 1.140625 0.578125 2.171875q1.15625 3.125 3.703125 4.703125q2.546875 1.578125 5.765625 1.578125q2.53125 0 4.921875 -0.703125q2.390625 -0.703125 5.015625 -2.203125l2.34375 3.96875q-3.1875 2.1875 -6.40625 3.25q-3.21875 1.0625 -6.6875 1.0625q-3.28125 0 -6.078125 -1.09375q-2.796875 -1.09375 -4.8125 -3.25q-2.015625 -2.15625 -3.15625 -5.375q-1.140625 -3.21875 -1.140625 -7.5q0 -3.46875 0.96875 -6.546875q0.96875 -3.078125 2.890625 -5.375q1.921875 -2.296875 4.765625 -3.640625q2.84375 -1.34375 6.625 -1.34375q3.65625 0 6.109375 1.109375q2.453125 1.109375 4.0 2.9375q1.546875 1.828125 2.34375 4.171875q0.796875 2.34375 1.109375 4.78125q0.15625 1.1875 0.203125 2.40625q0.046875 1.21875 0.046875 2.375l-23.3125 0zm9.09375 -12.90625q-2.03125 0 -3.546875 0.578125q-1.515625 0.578125 -2.578125 1.65625q-1.0625 1.078125 -1.703125 2.640625q-0.640625 1.5625 -0.953125 3.5l16.78125 0q-0.125 -1.8125 -0.578125 -3.34375q-0.453125 -1.53125 -1.390625 -2.65625q-0.9375 -1.125 -2.40625 -1.75q-1.46875 -0.625 -3.625 -0.625zm41.15625 25.34375q-1.84375 1.71875 -4.078125 2.8125q-2.234375 1.09375 -5.078125 1.09375q-2.375 0 -4.359375 -0.75q-1.984375 -0.75 -3.421875 -2.046875q-1.4375 -1.296875 -2.234375 -3.015625q-0.796875 -1.71875 -0.796875 -3.65625q0 -2.0625 0.609375 -3.65625q0.609375 -1.59375 1.625 -2.765625q1.015625 -1.171875 2.375 -1.96875q1.359375 -0.796875 2.84375 -1.28125q1.484375 -0.484375 3.03125 -0.6875q1.546875 -0.203125 2.953125 -0.203125q2.25 0 3.78125 0.140625q1.53125 0.140625 2.78125 0.390625l0.03125 -2.65625q0 -1.71875 -0.5 -2.984375q-0.5 -1.265625 -1.40625 -2.09375q-0.90625 -0.828125 -2.171875 -1.234375q-1.265625 -0.40625 -2.828125 -0.40625q-1.46875 0 -2.8125 0.203125q-1.34375 0.203125 -2.515625 0.53125q-1.171875 0.328125 -2.15625 0.75q-0.984375 0.421875 -1.671875 0.890625l-1.90625 -4.03125q1.15625 -0.75 2.53125 -1.390625q1.375 -0.640625 2.890625 -1.09375q1.515625 -0.453125 3.09375 -0.71875q1.578125 -0.265625 3.109375 -0.265625q2.8125 0 5.0625 0.671875q2.25 0.671875 3.8125 2.078125q1.5625 1.40625 2.40625 3.578125q0.84375 2.171875 0.84375 5.203125l-0.03125 16.1875l3.59375 0l0 5.375l-9.40625 0l0 -3.0zm-7.875 -0.96875q1.15625 0 2.3125 -0.28125q1.15625 -0.28125 2.1875 -0.765625q1.03125 -0.484375 1.90625 -1.125q0.875 -0.640625 1.46875 -1.328125l0.03125 -7.3125l-6.75 0q-1.6875 0 -3.078125 0.375q-1.390625 0.375 -2.40625 1.09375q-1.015625 0.71875 -1.578125 1.78125q-0.5625 1.0625 -0.5625 2.4375q0 1.28125 0.46875 2.234375q0.46875 0.953125 1.328125 1.59375q0.859375 0.640625 2.046875 0.96875q1.1875 0.328125 2.625 0.328125zm47.125 -21.5625l-5.9375 0l0 -2.0q-1.03125 0 -2.109375 0.390625q-1.078125 0.390625 -2.015625 1.1875q-0.9375 0.796875 -1.640625 2.03125q-0.703125 1.234375 -1.015625 2.921875l0 15.625l5.5 0l0 5.375l-16.0625 0l0 -5.375l4.46875 0l0.03125 -21.625l-4.5 0l0 -5.375l10.34375 0l0 4.46875q0.5625 -1.0 1.265625 -1.859375q0.703125 -0.859375 1.5625 -1.5q0.859375 -0.640625 1.90625 -1.0q1.046875 -0.359375 2.265625 -0.359375q1.625 0 3.0625 0q1.4375 0 2.875 0.0625l0 7.03125zm30.09375 1.78125q-1.3125 -2.34375 -3.328125 -3.4375q-2.015625 -1.09375 -4.671875 -1.09375q-2.03125 0 -3.8125 0.84375q-1.78125 0.84375 -3.109375 2.40625q-1.328125 1.5625 -2.09375 3.796875q-0.765625 2.234375 -0.765625 4.984375q0 2.71875 0.765625 4.90625q0.765625 2.1875 2.109375 3.734375q1.34375 1.546875 3.109375 2.375q1.765625 0.828125 3.796875 0.828125q3.0 0 5.21875 -1.453125q2.21875 -1.453125 3.53125 -4.265625l4.8125 2.375q-0.9375 2.0 -2.3125 3.59375q-1.375 1.59375 -3.109375 2.71875q-1.734375 1.125 -3.8125 1.734375q-2.078125 0.609375 -4.390625 0.609375q-3.375 0 -6.234375 -1.265625q-2.859375 -1.265625 -4.9375 -3.546875q-2.078125 -2.28125 -3.234375 -5.4375q-1.15625 -3.15625 -1.15625 -6.90625q0 -3.75 1.21875 -6.90625q1.21875 -3.15625 3.34375 -5.421875q2.125 -2.265625 4.96875 -3.546875q2.84375 -1.28125 6.09375 -1.28125q3.0625 0 5.796875 1.0625q2.734375 1.0625 4.796875 3.21875l3.28125 0l0 5.375l-5.875 0zm12.0 -24.875l10.25 0l0 19.8125l0.1875 0q0.875 -0.875 2.015625 -1.640625q1.140625 -0.765625 2.390625 -1.328125q1.25 -0.5625 2.59375 -0.875q1.34375 -0.3125 2.8125 -0.3125q2.59375 0 4.6875 0.71875q2.09375 0.71875 3.5625 2.1875q1.46875 1.46875 2.265625 3.765625q0.796875 2.296875 0.796875 5.421875l0 15.5l4.875 0l0 5.375l-15.375 0l0 -5.375l4.4375 0l0 -14.78125q0 -3.71875 -1.890625 -5.640625q-1.890625 -1.921875 -5.421875 -1.921875q-2.0 0 -4.0625 0.953125q-2.0625 0.953125 -3.875 2.390625l0 19.0l4.6875 0l0 5.375l-15.375 0l0 -5.375l4.875 0l0 -37.875l-4.4375 0l0 -5.375z" fill-rule="nonzero"></path></g></svg>

